<svg width="64" height="32" viewBox="0 0 64 32" fill="none" xmlns="http://www.w3.org/2000/svg">
<g clip-path="url(#clip0_51404_1517)">
<path d="M1.805 27V4.296H12.299L16.193 14.163C16.369 14.559 16.556 15.065 16.754 15.681C16.974 16.297 17.183 16.935 17.381 17.595C17.601 18.233 17.799 18.805 17.975 19.311H18.206C18.338 18.849 18.503 18.31 18.701 17.694C18.921 17.078 19.141 16.462 19.361 15.846C19.603 15.208 19.812 14.647 19.988 14.163L23.882 4.296H34.079V27H27.38V15.285C27.38 14.823 27.38 14.306 27.38 13.734C27.402 13.162 27.424 12.601 27.446 12.051C27.468 11.501 27.479 11.028 27.479 10.632H27.215C27.083 11.05 26.918 11.545 26.72 12.117C26.522 12.689 26.324 13.261 26.126 13.833C25.95 14.383 25.774 14.867 25.598 15.285L20.846 27H14.708L9.923 15.285C9.703 14.713 9.483 14.13 9.263 13.536C9.065 12.942 8.878 12.392 8.702 11.886C8.548 11.358 8.416 10.94 8.306 10.632H8.042C8.064 10.94 8.075 11.347 8.075 11.853C8.097 12.359 8.108 12.909 8.108 13.503C8.13 14.097 8.141 14.691 8.141 15.285V27H1.805ZM36.2034 27V4.296H42.9024V12.744H56.5314V4.296H63.2304V27H56.5314V18.156H42.9024V27H36.2034Z" fill="#FFAAF2"/>
</g>
<defs>
<clipPath id="clip0_51404_1517">
<rect width="64" height="32" fill="white"/>
</clipPath>
</defs>
</svg>
